# xmcd
#
# Track frame offsets:
#	150
#	16099
#	27683
#	42601
#	53273
#	63514
#	76501
#	88068
#	100796
#	112082
#	122709
#	132349
#	143659
#	156130
#	167399
#	179181
#	191606
#	202585
#	214741
#	228282
#	239815
#	251235
#	259922
#	270452
#	280047
#
# Disc length: 3869 seconds
#
# Revision: 0
# Processed by: cddbd v1.5.2PL0 Copyright (c) Steve Scherf et al.
# Submitted via: audiograbber 1.83.01
#
DISCID=600f1b19
DTITLE=Various Artist - Beginner's Guide To Rythm 'N' Blues - Diggin' Deeper [CD2)
DYEAR=2010
DGENRE=R&B
TTITLE0=Dr Horse - Jack, The Cat Was Clean
TTITLE1=John Lee Hooker - I Love You Honey
TTITLE2=Willie Mabon - I'm The Fixer
TTITLE3=Junior Wells - Come On In This House
TTITLE4=JB Lenoir - I Feel So Good
TTITLE5=Jesse Fortune - Too Many Cooks
TTITLE6=Huey 'Piano' Smith And The Clowns - Don't You Just Know It
TTITLE7=Jimmy Spruill - Hard Grind
TTITLE8=Gene and Al - Mercy Mercy
TTITLE9=Morgus and The GHouls - Morgus The Magnificent
TTITLE10=Gene Allison - You Can Make It If You Try
TTITLE11=The Emeralds - I Kneel At Your Throne
TTITLE12=Ted Taylor - Strange Things Happening
TTITLE13=Gene Thompson And The Counts - You Don't Love Me
TTITLE14=Frank Frost - My Back Scratcher
TTITLE15=Banny Price - Monkey See, Monkey Do
TTITLE16=Eddie Boo - We Like Mambo
TTITLE17=Frankie Ford - It Must Be Jelly
TTITLE18=Wiley Terry - Follow The Leader
TTITLE19=Joe and Anne - Gee Baby
TTITLE20=Freddy Young - Monkey Business
TTITLE21=Andrew Tibbs - I Made A Mistake
TTITLE22=Otis Rush - Sit Down Baby
TTITLE23=Magic Sam - Love Me With A Feeling
TTITLE24=Harold Burrage with The Willie Dixon Band - She Knocks Me Out
EXTD=Das Album besteht aus 3 CD's.
EXTT0=
EXTT1=
EXTT2=
EXTT3=
EXTT4=
EXTT5=
EXTT6=
EXTT7=
EXTT8=
EXTT9=
EXTT10=
EXTT11=
EXTT12=
EXTT13=
EXTT14=
EXTT15=
EXTT16=
EXTT17=
EXTT18=
EXTT19=
EXTT20=
EXTT21=
EXTT22=
EXTT23=
EXTT24=
PLAYORDER=
